<?xml version="1.0" encoding="UTF-8"?>
<svg version="1.1" viewBox="0 0 3840 840" width="960" height="210" xmlns="http://www.w3.org/2000/svg">
<path transform="translate(2279,165)" d="m0 0h452l22 2 10 3 16 8 14 10 6 5 11 14 5 8 6 15 2 10 1 13v155l-2 18-3 11-8 17-9 11-4 5h-2v2l-16 12-16 7-18 4-8 1-51 1h-19l-12-1 9 11 11 12 8 10 12 14 9 11 13 15 9 11 24 28 9 11 13 15 9 11 12 14 11 13 12 14 3 4v2h-99l-10-12-9-11-12-14-9-11-11-13-9-11-12-14-9-11-11-13-9-11-12-14-9-11-12-14-9-11-9-10-8-10-2-4-202-1v195l-1 1h-78l-1-1v-525zm106 61-12 2-8 6-5 6-3 7v166l3 9 6 7 10 5 4 1h340l10-3 10-9 3-6 1-5v-163l-3-9-7-8-7-4-15-2z" fill="#FEFEFE"/>
<path transform="translate(2990,165)" d="m0 0h364l23 2 15 4 16 8 14 11 7 8 8 13 7 15 3 13 1 9v443l-1 1h-78l-1-5v-187h-387v191l-1 1h-78l-1-1v-440l3-20 7-17 8-14 8-10 12-10 8-5 16-6 16-3zm19 60-11 2-9 7-6 8-2 7v192h387l1-187-2-10-6-9-8-7-5-2-11-1z" fill="#FEFEFE"/>
<path transform="translate(1740,165)" d="m0 0h362l24 2 15 4 16 8 13 10 9 10 9 15 6 15 2 8 1 9v362l-2 18-6 16-6 11-12 15-14 10-12 6-15 5-20 3h-373l-21-3-19-7-11-7-10-8-8-10-7-11-6-14-3-13-2-22v-336l1-17 3-15 7-17 9-14 7-9 13-10 16-8 15-4zm19 60-11 2-9 6-6 8-3 9v353l2 13 4 6 8 7 9 3 9 1h281l51-1 9-3 6-4 6-8 2-7 1-8v-350l-2-9-7-10-7-5-6-2-10-1z" fill="#FEFEFE"/>
<path transform="translate(1032,165)" d="m0 0h95l7 7 4 5v2h2l9 11 12 14 9 11 12 14 9 11 9 10 9 11 12 14 9 11 13 15 9 11 13 15 11 13 9 11 13 15 4 3 12-14 11-13 9-11 9-10 8-10 12-14 9-11 2-3h2l2-4 11-13 9-11 9-10 8-10 12-14 9-11 2-3h2l2-4 11-13 5-7h2l2-4 8-9 5-5h95l-2 4-12 14-13 16-22 26-9 11-12 14-11 13-8 10-13 15-9 11-11 13-9 11-22 26-9 11-12 14-22 26-9 11-11 13-3 4 2 5 11 12 9 11 12 14 11 13 9 11 13 15 9 11 24 28 9 11 13 15 9 11 12 14 9 11 9 10 9 11 12 14 9 11 12 14 9 11 8 10v1h-98l-13-16-13-15-9-11-13-15-8-10-13-15-8-10-13-15-9-11-13-15-8-10-13-15-9-11-12-14-9-11-7-8v-2l-4 2-9 11-12 14-11 13-12 14-9 11-12 14-9 11-9 10-9 11-22 26-9 11-9 10-9 11-2 3h-2l-2 4-12 14-1 2h-2l-2 4-7 8h-96l1-4 10-11 9-11 11-13 9-11 2-3h2l2-4 12-14 9-11 8-9 9-11 12-14 10-13h2l2-4 12-14 9-11 8-9 9-11 12-14 9-11 9-10 11-14 10-11 8-10 11-13v-4l-9-11-12-14-9-11-11-13-9-11-8-9-9-11-12-14-9-11-12-14-8-10-13-15-8-10-13-15-8-10-12-14-9-11-12-14-9-11-12-14-9-11-5-6z" fill="#FEFEFE"/>
<path transform="translate(673,149)" d="m0 0h102l15 2 10 6v2h2l6 9 3 9v110l-2 9-7 11-6 7-12 9-10 4-14 1-81 1-16 2-10 5-15 14-9 13-6 12-3 10-1 12-1 86-4 9-6 9-7 7h-2v2l-10 7-6 2-16 1-84 1-17 2-10 4-12 9-7 6-9 13-3 6-1 5-1 101-3 10-6 9-5 6h-2v2l-12 9-13 4-28 1h-62l-14-1-10-3-9-6-6-7-4-10-1-7-1-59v-27l2-21 5-13 7-12 7-7 10-5 3-1 101-1 12-3 14-7 11-8 8-7 9-11 6-10 1-86 1-14 3-10 9-17 8-8 8-4 4-1 90-1 16-4 14-7 13-9 12-11 10-14 3-5 1-7 1-88 2-12 7-15 7-10 8-6 6-3z" fill="#fff"/>
<path transform="translate(3540,165)" d="m0 0h51l27 1v526h-80l-1-60v-360l1-106z" fill="#FEFEFE"/>
<path transform="translate(663,528)" d="m0 0h124l10 3 9 8 4 7 1 5v121l-3 10-7 9-11 10-8 4-9 2-29 1h-69l-14-1-10-3-6-4-6-7-3-9-1-7v-106l2-12 7-16 6-8 10-6z" fill="#fff"/>
<path transform="translate(279,149)" d="m0 0h108l16 1 8 4 7 7 5 12v118l-3 10-6 8-4 5-11 9-7 3-6 1-22 1h-77l-20-2-8-4-7-6-4-10-1-5-1-18v-81l1-16 4-13 7-12 4-5 7-5z" fill="#fff"/>
</svg>
