<?xml version="1.0" encoding="UTF-8"?>
<svg xmlns="http://www.w3.org/2000/svg" xmlns:xlink="http://www.w3.org/1999/xlink" width="30px" height="30px" viewBox="0 0 30 30" version="1.1">
<g id="surface1">
<path style=" stroke:none;fill-rule:nonzero;fill:rgb(0.392157%,94.509804%,0%);fill-opacity:1;" d="M 19.828125 6.75 L 22.140625 6.75 L 22.679688 6.78125 L 22.949219 6.871094 L 23.21875 7.078125 L 23.398438 7.378906 L 23.460938 7.621094 L 23.460938 11.011719 L 23.339844 11.339844 L 23.160156 11.578125 L 22.921875 11.851562 L 22.53125 12.089844 L 22.019531 12.179688 L 19.289062 12.210938 L 18.78125 12.359375 L 18.390625 12.660156 L 18.121094 12.960938 L 17.851562 13.378906 L 17.699219 13.738281 L 17.609375 14.160156 L 17.578125 16.949219 L 17.460938 17.21875 L 17.28125 17.460938 L 16.980469 17.761719 L 16.679688 17.941406 L 16.53125 18 L 16.289062 18.03125 L 15.601562 18.058594 L 13.230469 18.089844 L 12.960938 18.148438 L 12.660156 18.269531 L 12.269531 18.539062 L 12.03125 18.78125 L 11.761719 19.199219 L 11.671875 19.5 L 11.640625 22.589844 L 11.550781 22.890625 L 11.339844 23.160156 L 11.039062 23.460938 L 10.738281 23.640625 L 10.441406 23.730469 L 9.660156 23.761719 L 7.621094 23.761719 L 7.199219 23.730469 L 6.898438 23.640625 L 6.601562 23.398438 L 6.480469 23.21875 L 6.390625 22.949219 L 6.359375 22.679688 L 6.359375 19.921875 L 6.421875 19.441406 L 6.539062 19.109375 L 6.71875 18.78125 L 6.898438 18.570312 L 7.140625 18.421875 L 7.5 18.328125 L 10.53125 18.300781 L 10.921875 18.179688 L 11.339844 17.941406 L 11.761719 17.578125 L 12.058594 17.25 L 12.238281 16.949219 L 12.300781 16.589844 L 12.300781 14.460938 L 12.359375 13.738281 L 12.480469 13.410156 L 12.660156 13.078125 L 12.871094 12.839844 L 13.230469 12.660156 L 13.378906 12.628906 L 16.078125 12.601562 L 16.441406 12.511719 L 16.800781 12.359375 L 17.191406 12.121094 L 17.578125 11.789062 L 17.851562 11.488281 L 18.058594 11.160156 L 18.121094 11.011719 L 18.148438 10.828125 L 18.179688 8.25 L 18.238281 7.859375 L 18.359375 7.53125 L 18.539062 7.199219 L 18.71875 6.988281 L 18.960938 6.839844 L 19.140625 6.78125 Z M 19.828125 6.75 "/>
<path style=" stroke:none;fill-rule:nonzero;fill:rgb(0.392157%,94.509804%,0%);fill-opacity:1;" d="M 19.109375 18.300781 L 22.679688 18.300781 L 22.949219 18.359375 L 23.191406 18.511719 L 23.371094 18.71875 L 23.460938 18.988281 L 23.460938 22.738281 L 23.339844 23.039062 L 23.011719 23.429688 L 22.679688 23.640625 L 22.378906 23.730469 L 22.140625 23.761719 L 19.050781 23.761719 L 18.691406 23.699219 L 18.421875 23.550781 L 18.238281 23.308594 L 18.148438 23.011719 L 18.121094 22.558594 L 18.121094 20.039062 L 18.148438 19.5 L 18.238281 19.140625 L 18.480469 18.660156 L 18.628906 18.511719 L 18.839844 18.359375 Z M 19.109375 18.300781 "/>
<path style=" stroke:none;fill-rule:nonzero;fill:rgb(0.392157%,94.509804%,0%);fill-opacity:1;" d="M 7.140625 6.78125 L 11.039062 6.78125 L 11.339844 6.929688 L 11.519531 7.140625 L 11.609375 7.320312 L 11.640625 7.46875 L 11.640625 11.128906 L 11.550781 11.398438 L 11.371094 11.640625 L 11.070312 11.941406 L 10.710938 12.121094 L 10.320312 12.179688 L 7.230469 12.179688 L 6.871094 12.121094 L 6.628906 12 L 6.628906 11.941406 L 6.539062 11.910156 L 6.390625 11.671875 L 6.328125 11.429688 L 6.300781 10.949219 L 6.300781 8.488281 L 6.328125 7.921875 L 6.421875 7.53125 L 6.691406 7.078125 L 6.929688 6.871094 Z M 7.140625 6.78125 "/>
<path style=" stroke:none;fill-rule:nonzero;fill:rgb(30.19608%,30.19608%,30.19608%);fill-opacity:1;" d="M 18.421875 18.75 L 18.449219 18.75 L 18.449219 22.019531 L 18.480469 22.648438 L 18.570312 22.890625 L 18.75 23.101562 L 19.050781 23.25 L 19.289062 23.28125 L 22.800781 23.28125 L 23.101562 23.191406 L 23.25 23.128906 L 23.070312 23.371094 L 22.738281 23.609375 L 22.53125 23.699219 L 22.140625 23.761719 L 19.050781 23.761719 L 18.691406 23.699219 L 18.421875 23.550781 L 18.238281 23.308594 L 18.148438 23.011719 L 18.121094 22.558594 L 18.121094 20.039062 L 18.148438 19.5 L 18.238281 19.140625 Z M 18.421875 18.75 "/>
<path style=" stroke:none;fill-rule:nonzero;fill:rgb(30.19608%,30.19608%,30.19608%);fill-opacity:1;" d="M 6.601562 7.230469 L 6.628906 7.230469 L 6.628906 10.46875 L 6.660156 11.070312 L 6.78125 11.339844 L 6.929688 11.519531 L 7.171875 11.640625 L 7.261719 11.671875 L 7.679688 11.699219 L 10.890625 11.699219 L 11.191406 11.640625 L 11.371094 11.550781 L 11.429688 11.578125 L 11.070312 11.941406 L 10.710938 12.121094 L 10.320312 12.179688 L 7.230469 12.179688 L 6.871094 12.121094 L 6.628906 12 L 6.628906 11.941406 L 6.539062 11.910156 L 6.390625 11.671875 L 6.328125 11.429688 L 6.300781 10.949219 L 6.300781 8.488281 L 6.328125 7.921875 L 6.421875 7.53125 Z M 6.601562 7.230469 "/>
<path style=" stroke:none;fill-rule:nonzero;fill:rgb(30.19608%,30.19608%,30.19608%);fill-opacity:1;" d="M 6.660156 18.871094 L 6.691406 18.988281 L 6.660156 20.699219 L 6.691406 22.441406 L 6.78125 22.738281 L 6.960938 23.011719 L 7.230469 23.191406 L 7.410156 23.25 L 7.679688 23.28125 L 10.800781 23.28125 L 11.160156 23.191406 L 11.308594 23.101562 L 11.371094 23.128906 L 11.039062 23.460938 L 10.738281 23.640625 L 10.441406 23.730469 L 9.660156 23.761719 L 7.621094 23.761719 L 7.199219 23.730469 L 6.898438 23.640625 L 6.601562 23.398438 L 6.480469 23.21875 L 6.390625 22.949219 L 6.359375 22.679688 L 6.359375 19.921875 L 6.421875 19.441406 L 6.539062 19.109375 Z M 6.660156 18.871094 "/>
<path style=" stroke:none;fill-rule:nonzero;fill:rgb(30.19608%,30.19608%,30.19608%);fill-opacity:1;" d="M 17.25 17.398438 L 17.308594 17.429688 L 16.980469 17.761719 L 16.679688 17.941406 L 16.53125 18 L 16.289062 18.03125 L 15.601562 18.058594 L 13.230469 18.089844 L 12.960938 18.148438 L 12.660156 18.269531 L 12.269531 18.539062 L 12.148438 18.628906 L 12.210938 18.511719 L 12.511719 18.210938 L 12.871094 17.941406 L 13.050781 17.820312 L 13.410156 17.671875 L 13.621094 17.609375 L 16.558594 17.578125 L 17.011719 17.519531 Z M 17.25 17.398438 "/>
<path style=" stroke:none;fill-rule:nonzero;fill:rgb(30.19608%,30.19608%,30.19608%);fill-opacity:1;" d="M 23.101562 11.550781 L 23.160156 11.578125 L 22.921875 11.851562 L 22.53125 12.089844 L 22.019531 12.179688 L 19.289062 12.210938 L 18.78125 12.359375 L 18.390625 12.660156 L 18.300781 12.71875 L 18.359375 12.601562 L 18.75 12.210938 L 19.171875 11.910156 L 19.53125 11.761719 L 19.679688 11.730469 L 22.679688 11.699219 L 22.980469 11.609375 Z M 23.101562 11.550781 "/>
<path style=" stroke:none;fill-rule:nonzero;fill:rgb(30.19608%,30.19608%,30.19608%);fill-opacity:1;" d="M 12.601562 13.171875 L 12.628906 13.171875 L 12.601562 16.320312 L 12.449219 16.738281 L 12.300781 16.949219 L 12.269531 16.859375 L 12.300781 16.351562 L 12.300781 14.460938 L 12.359375 13.738281 L 12.480469 13.410156 Z M 12.601562 13.171875 "/>
<path style=" stroke:none;fill-rule:nonzero;fill:rgb(30.19608%,30.19608%,30.19608%);fill-opacity:1;" d="M 18.480469 7.289062 L 18.511719 7.410156 L 18.480469 7.859375 L 18.480469 8.640625 L 18.449219 10.441406 L 18.328125 10.800781 L 18.148438 11.128906 L 18.089844 11.160156 L 18.148438 10.828125 L 18.179688 8.25 L 18.238281 7.859375 L 18.359375 7.53125 Z M 18.480469 7.289062 "/>
</g>
</svg>
